<?xml version="1.0" encoding="utf-8"?>
<!-- Generator: Adobe Illustrator 23.0.2, SVG Export Plug-In . SVG Version: 6.00 Build 0)  -->
<svg version="1.1" id="Layer_1" xmlns="http://www.w3.org/2000/svg" xmlns:xlink="http://www.w3.org/1999/xlink" x="0px" y="0px"
	 viewBox="0 0 61.6 57.3" style="enable-background:new 0 0 61.6 57.3;" xml:space="preserve">
<style type="text/css">
	.st0{display:none;}
	.st1{fill:none;stroke:#000000;stroke-miterlimit:10;}
	.st2{display:none;fill:none;stroke:#000000;stroke-miterlimit:10;}
</style>
<path class="st0" d="M26.9,14.4c-0.1,0.1-0.2,0.2-0.3,0.4c-1,1-2.4,1.6-3.8,1.6l-1.8,0v2c0.6,0,1.2,0,1.8,0c2,0,3.9-0.7,5.3-2.1
	c0.5-0.5,1-1.1,1.3-1.8H26.9z M65.8-18.2c-1.4-1.4-3.2-2.4-5-2.8l-9.3-9.4c-0.1-1.6-0.8-3.2-2-4.3c-1.3-1.3-3-1.9-4.7-1.9l-21.7,0.2
	c-0.4,0-0.8,0-1.2,0.1c-0.3-0.7-0.8-1.3-1.3-1.8c-1.4-1.3-3.1-2-5-2c-1.9,0-3.7,0.8-5,2.1c-1.3,1.4-2,3.1-2,5l0.2,22H8.5
	c-4.1,0-7.4,3.3-7.5,7.4C1-1.1,1,1.5,1,4.1c0,1.4,0,2.7,0,4.1c0.1,1.5,0.1,3,0.2,4.4c0.2,0.8,0.7,2.2,1.9,3.4
	c0.5,0.5,1.1,0.9,1.5,1.2c0.9,0.3,1.8,0.6,2.8,1c1.4,0,2.8,0,4.3,0.1v-2l-3.3,0c-1.5,0-2.8-0.6-3.8-1.6c-1-1-1.6-2.4-1.6-3.9L3-3.6
	c0-3,2.5-5.4,5.5-5.4l14.4,0.1c1.5,0,2.8,0.6,3.8,1.6c1,1,1.6,2.4,1.6,3.9l-0.1,8.5h2l0.1-8.5c0-2-0.7-3.8-2.1-5.3
	c-1.4-1.4-3.2-2.2-5.2-2.2l-0.1-12.1c0.1,0,0.2,0,0.4,0l21.7-0.2c1.1,0,2.2-0.3,3.2-0.8l4.5,4.6c-0.5,0.3-1,0.7-1.5,1.2
	C47.1-14.3,47-7.7,51-3.6L52.5-5c-3.2-3.3-3.2-8.6,0.1-11.8c3.3-3.2,8.6-3.2,11.8,0.1c3.2,3.3,3.2,8.6-0.1,11.8l1.4,1.4
	C69.7-7.5,69.8-14.1,65.8-18.2z M10.7-11l-0.2-22c0-1.4,0.5-2.6,1.5-3.6c1-1,2.2-1.5,3.6-1.5c1.4,0,2.6,0.5,3.6,1.5
	c1,1,1.5,2.2,1.5,3.6l0.2,22.2L10.7-11z M48.2-26.6c-0.9,0.9-2.1,1.4-3.3,1.4L23.1-25c-0.1,0-0.2,0-0.4,0l-0.1-8.1
	c0-0.4-0.1-0.8-0.1-1.2c0.2,0,0.3,0,0.5,0l21.7-0.2c1.3,0,2.4,0.5,3.3,1.4c0.9,0.9,1.4,2,1.4,3.3C49.5-28.7,49.1-27.5,48.2-26.6z
	 M54.4-20.5l-4.8-4.8c0.7-0.7,1.2-1.6,1.5-2.5l6.5,6.6C56.6-21.1,55.5-20.9,54.4-20.5z"/>
<path class="st1" d="M29.3,34.2v16.7c0,2.7-2.2,4.9-4.9,4.9H7.8c-2.7,0-4.9-2.2-4.9-4.9V34.2c0-2.7,2.2-4.9,4.9-4.9h16.7
	C27.2,29.3,29.3,31.5,29.3,34.2z"/>
<path class="st1" d="M20.9,6.9v21.8c0,0.2,0,0.4,0,0.7h-9.2c0-0.2,0-0.4,0-0.7V6.9c0-2.6,2.1-4.7,4.7-4.7h0c1.9,0,3.6,1.2,4.3,2.9
	C20.8,5.6,20.9,6.2,20.9,6.9z"/>
<path class="st1" d="M42.8,9.7L42.8,9.7c0,0.3,0,0.6-0.1,0.8c-0.2,1.3-0.9,2.3-2,3c-0.7,0.5-1.6,0.8-2.6,0.8H20.9V6.9
	c0-0.6-0.1-1.2-0.4-1.8h17.6C40.7,5.1,42.8,7.2,42.8,9.7z"/>
<path class="st1" d="M53.5,19.1c-0.3,0-0.6-0.1-0.9-0.1c-1.4,0-2.6,0.4-3.7,1l-8.1-6.4c1-0.7,1.7-1.8,2-3L53.5,19.1z"/>
<path class="st2" d="M55.5,28.8c1.4,0,2.5,0.5,3.3,1.2c0.3-0.6,0.6-1.1,0.7-1.5c0.1-0.4,0.2-0.8,0.3-1c0-0.1,0.1-0.6,0.1-1.2
	c0-1.2-0.4-2.2-0.5-2.6c-0.2-0.5-0.8-2-2.4-3.2c0,0-1.4-1.1-3.4-1.3C53,19,52.6,19,52.6,19c-0.3,0-0.9,0-1.7,0.2
	c-0.4,0.1-1.1,0.3-2,0.8c-0.6,0.3-1.5,1-2.3,2.2c-0.6,0.8-0.8,1.6-1,2c0,0-0.3,1-0.3,2c0,3.4,2.3,6.2,5.4,7
	C50.9,31,52.5,28.8,55.5,28.8z"/>
<path class="st1" d="M54.9,19.5"/>
<path class="st1" d="M46.8,28.4"/>
<polyline class="st1" points="48.9,20 46.8,28.4 51.7,30.4 "/>
<path class="st1" d="M54.9,19.5"/>
<polyline class="st1" points="53.5,19.1 57.8,21.8 57.2,25.6 "/>
<path class="st1" d="M50.1,19.1"/>
<path class="st1" d="M51.7,4.3"/>
</svg>
